<?xml version="1.0" encoding="utf-8"?>
<!-- Generator: Adobe Illustrator 19.0.0, SVG Export Plug-In . SVG Version: 6.00 Build 0)  -->
<svg version="1.1" id="Layer_1" xmlns="http://www.w3.org/2000/svg" xmlns:xlink="http://www.w3.org/1999/xlink" x="0px" y="0px"
	 viewBox="0 0 224.1 100.2" style="enable-background:new 0 0 224.1 100.2;" xml:space="preserve">
<style type="text/css">
	.st0{fill:#ED6E05;}
	.st1{fill:#E52B30;}
	.st2{fill:#FAB800;}
</style>
<g id="XMLID_436_">
	<path id="XMLID_850_" class="st0" d="M98.9,95l-2.2-5.4L94.5,95H98.9z M102.4,100h-1.6l-1.4-3.5h-5.5l-1.4,3.5H91l4.8-11.9h1.9
		L102.4,100z"/>
	<g id="XMLID_804_">
		<path id="XMLID_810_" class="st0" d="M110.3,89.5v4.9l3.5-1.8c0.7-0.4,1.1-1,1.1-1.6c0-0.8-0.6-1.5-1.7-1.5H110.3z M108.8,88.1
			h4.3c2,0,3.2,1.5,3.2,2.9c0,0.5-0.1,1-0.4,1.5c-0.3,0.6-0.9,1.1-1.6,1.5l-4.1,2.1v3.9h-1.5V88.1z"/>
		<path id="XMLID_809_" class="st0" d="M122,93.2c-1.2,0.2-1.7,0.5-2.2,1.4v5.4h-1.5v-8.3h1.2l0.3,0.7c0.6-0.4,1.2-0.6,2.2-0.7V93.2
			z"/>
		<path id="XMLID_806_" class="st0" d="M124.5,95.8c0,1.8,1,2.9,2.7,2.9c1.7,0,2.7-1.1,2.7-2.9c0-1.8-1-2.9-2.7-2.9
			C125.5,92.9,124.5,94.1,124.5,95.8 M131.3,95.8c0,3.2-2.2,4.4-4.1,4.4c-1.9,0-4.1-1.2-4.1-4.4c0-3.2,2.2-4.4,4.1-4.4
			C129.1,91.5,131.3,92.7,131.3,95.8"/>
		<path id="XMLID_805_" class="st0" d="M134.6,100h-1.5v-8.3h1.2l0.3,1.3c0.6-0.6,1.4-1,2.3-1.3c0.4-0.1,0.8-0.2,1.2-0.2
			c1.1,0,2.2,0.5,2.6,1.7c0.7-0.7,1.5-1.2,2.6-1.5c0.4-0.1,0.8-0.2,1.2-0.2c1.5,0,2.8,0.9,2.8,3.1v5.4h-1.5v-5.5
			c0-1.1-0.6-1.5-1.4-1.5c-1.3,0-2.7,1.1-3.5,2v5h-1.5v-5.5c0-1.1-0.6-1.5-1.4-1.5c-1.3,0-2.7,1.1-3.5,2V100z"/>
	</g>
	<path id="XMLID_801_" class="st0" d="M149.6,91.7h1.5v8.3h-1.5V91.7z M149.4,88.4h1.7v1.7h-1.7V88.4z"/>
	<g id="XMLID_783_">
		<path id="XMLID_800_" class="st0" d="M155.8,98.8c1,0.1,1.7-0.6,1.8-1.2c0.2-0.9-0.6-1.2-1.4-1.3c-0.4-0.1-0.9-0.2-1.3-0.3
			c-1.2-0.4-1.7-1.2-1.7-2.1c0-0.1,0-0.2,0-0.4c0.2-1.2,1.2-2,2.6-2c1.1,0,2.1,0.6,2.8,1.6l-1.2,0.8c-0.3-0.5-0.9-0.9-1.6-0.9
			c-0.6,0-1.1,0.3-1.1,1c0,0.3,0.2,0.6,0.7,0.7l1.8,0.4c1.2,0.3,2.1,1.2,1.9,2.6c-0.1,1.2-1,2-2,2.4c-0.4,0.2-0.9,0.2-1.3,0.2
			c-1.4,0-2.3-0.7-2.9-1.6l1.1-0.9C154.4,98.2,154.8,98.7,155.8,98.8"/>
		<path id="XMLID_791_" class="st0" d="M166.5,94.8c-0.2-1.3-1.1-1.9-2.2-1.9c-1,0-2,0.6-2.2,1.9H166.5z M168.1,96.3h-6
			c0,1.4,0.6,2.5,2.3,2.5c1,0,1.8-0.4,2.1-1.3h1.5c-0.1,1.5-1.6,2.8-3.6,2.8c-1.5,0-2.9-0.7-3.4-2.1c-0.2-0.6-0.4-1.4-0.3-2.3
			c0-3.2,1.9-4.4,3.7-4.4c1.8,0,3.7,1.1,3.7,4.4V96.3z"/>
		<path id="XMLID_790_" class="st0" d="M174.3,90.9c0-1.9,1.6-2.9,3.3-2.9c0.2,0,0.5,0,0.9,0v1.5c-0.1,0-0.6,0-0.7,0
			c-1.1,0-2,0.4-2,1.4v0.8h1.9v1.5h-1.9v6.8h-1.5V90.9z"/>
		<path id="XMLID_785_" class="st0" d="M180.5,95.8c0,1.8,1,2.9,2.7,2.9c1.7,0,2.7-1.1,2.7-2.9c0-1.8-1-2.9-2.7-2.9
			C181.5,92.9,180.5,94.1,180.5,95.8 M187.3,95.8c0,3.2-2.2,4.4-4.1,4.4c-1.9,0-4.1-1.2-4.1-4.4c0-3.2,2.2-4.4,4.1-4.4
			C185.1,91.5,187.3,92.7,187.3,95.8"/>
		<path id="XMLID_784_" class="st0" d="M193.1,93.2c-1.2,0.2-1.7,0.5-2.2,1.4v5.4h-1.5v-8.3h1.2l0.3,0.7c0.6-0.4,1.2-0.6,2.2-0.7
			V93.2z"/>
	</g>
	<polygon id="XMLID_782_" class="st0" points="199.4,100 199.4,88.1 200.8,88.1 200.8,98.5 206.9,98.5 206.9,100 	"/>
	<path id="XMLID_779_" class="st0" d="M208.7,91.7h1.5v8.3h-1.5V91.7z M208.5,88.4h1.7v1.7h-1.7V88.4z"/>
	<g id="XMLID_690_">
		<path id="XMLID_778_" class="st0" d="M212.4,90.9c0-1.9,1.6-2.9,3.3-2.9c0.2,0,0.5,0,0.9,0v1.5c-0.1,0-0.6,0-0.7,0
			c-1.1,0-2,0.4-2,1.4v0.8h1.9v1.5h-1.9v6.8h-1.5V90.9z"/>
		<path id="XMLID_694_" class="st0" d="M222.6,94.8c-0.2-1.3-1.1-1.9-2.2-1.9c-1,0-2,0.6-2.2,1.9H222.6z M224.1,96.3h-6
			c-0.1,1.4,0.6,2.5,2.3,2.5c1,0,1.8-0.4,2.1-1.3h1.5c-0.1,1.5-1.6,2.8-3.6,2.8c-1.5,0-2.9-0.7-3.4-2.1c-0.2-0.6-0.4-1.4-0.3-2.3
			c0-3.2,1.9-4.4,3.7-4.4c1.8,0,3.7,1.1,3.7,4.4V96.3z"/>
	</g>
	<polygon id="XMLID_687_" class="st1" points="84.1,54.1 94.3,54.1 94.3,79.2 99.2,79.2 99.2,54.1 109.4,54.1 109.4,49.1 84.1,49.1 
			"/>
	<path id="XMLID_517_" class="st1" d="M126.1,57.6c0,1.2-0.9,2.5-2.2,3l-7.6,3.1v-9.6h6.4C124.8,54.1,126.1,55.9,126.1,57.6
		 M131.1,57.5c0-4.1-3-8.4-8.5-8.4h-11.3v30.1h5V69l4.9-2l6.8,12.2h5.7l-7.8-14.1C129,63.8,131.1,60.8,131.1,57.5"/>
	<rect id="XMLID_515_" x="134.9" y="49.1" class="st1" width="5" height="30.1"/>
	<polygon id="XMLID_512_" class="st1" points="154.2,71.5 145.7,49.1 140.3,49.1 151.8,79.2 156.6,79.2 168.1,49.1 162.7,49.1 	"/>
	<polygon id="XMLID_510_" class="st1" points="170.3,79.2 187.9,79.2 187.9,74.3 175.3,74.3 175.3,66.2 187.1,66.2 187.1,61.2 
		175.3,61.2 175.3,54.1 187.9,54.1 187.9,49.1 170.3,49.1 	"/>
	<polygon id="XMLID_509_" class="st1" points="211,70 195.9,49.1 191.4,49.1 191.4,79.2 196.4,79.2 196.4,58.4 211.6,79.2 216,79.2 
		216,49.1 211,49.1 	"/>
	<rect id="XMLID_508_" x="219" y="49.1" class="st1" width="5" height="30.1"/>
	<g id="XMLID_438_">
		<path id="XMLID_505_" class="st2" d="M53.5,6.2L53.5,6.2C53.5,6.2,53.5,6.2,53.5,6.2C53.3,2.7,50.4,0,46.9,0c0,0,0,0-0.1,0
			c0,0,0,0-0.1,0h0H0l0.2,0.3c1.1,2,2.2,4,3.5,5.9h0h36.6h1.3c2.6,0,4.8,1.8,5.5,4.2h-0.1c0,0,0,0,0,0c1.5,0,2.9,0.5,4.1,1.4
			c1.4,1.1,2.4,2.9,2.5,4.8V7.1c0-0.1,0-0.3,0-0.4C53.6,6.5,53.5,6.4,53.5,6.2"/>
		<path id="XMLID_504_" class="st1" d="M47.1,21.3h-0.2C47,21.3,47.1,21.3,47.1,21.3C47.1,21.3,47.1,21.3,47.1,21.3"/>
		<path id="XMLID_503_" d="M47.1,21.3h-0.2C47,21.3,47.1,21.3,47.1,21.3C47.1,21.3,47.1,21.3,47.1,21.3"/>
		<path id="XMLID_493_" class="st0" d="M53.5,16.7c-0.1-1.9-1.1-3.7-2.5-4.8c-1.1-0.9-2.5-1.4-4.1-1.4c0,0,0,0,0,0h-0.1h-3.1h-2.3
			H6.7h0c1.7,2.2,3.6,4.3,5.7,6.3h0h27.9h1.4c0.8,0,1.5,0.1,2.2,0.4h0c0.7,0.3,1.2,0.7,1.8,1.1c0.8,0.8,1.4,1.8,1.6,3h0c0,0,0,0,0,0
			c1.4,0.1,2.6,0.5,3.6,1.3c1.6,1.1,2.6,2.9,2.8,5c0,0,0,0,0,0v-9.9c0-0.1,0-0.3,0-0.4C53.6,17,53.5,16.8,53.5,16.7"/>
		<path id="XMLID_491_" class="st1" d="M53.5,27.5L53.5,27.5C53.5,27.5,53.5,27.5,53.5,27.5c-0.1-2-1.2-3.8-2.8-5
			c-1-0.7-2.3-1.2-3.6-1.3c-0.1,0-0.2,0-0.3,0h-3.1h-2.1H17.6h0c3.1,2.4,6.3,4.5,9.8,6.3h0h12.8h1.4c0.6,0,1.2,0.1,1.7,0.3h0
			c1.2,0.4,2.3,1.2,3,2.3c0.6,0.9,0.9,1.9,0.9,3v1.5v33.1c-0.5,4.8-3.2,9-7.2,11.4c-0.1,0.1-0.2,0.1-0.3,0.2h8.4
			c3.1-2.6,5.2-6.4,5.4-10.7V28.4c0-0.1,0-0.3,0-0.4C53.6,27.8,53.5,27.7,53.5,27.5"/>
		<path id="XMLID_473_" class="st2" d="M57.8,6.2L57.8,6.2C57.8,6.2,57.8,6.2,57.8,6.2C58,2.7,60.9,0,64.4,0c0,0,0,0,0.1,0
			c0,0,0,0,0.1,0h0h46.7l-0.2,0.3c-1.1,2-2.2,4-3.5,5.9h0H71.1h-1.3c-2.6,0-4.8,1.8-5.5,4.2h0.1c0,0,0,0,0,0c-1.5,0-2.9,0.5-4.1,1.4
			c-1.4,1.1-2.4,2.9-2.5,4.8V7.1c0-0.1,0-0.3,0-0.4C57.7,6.5,57.8,6.4,57.8,6.2"/>
		<path id="XMLID_466_" class="st1" d="M64.2,21.3h0.2C64.3,21.3,64.2,21.3,64.2,21.3C64.2,21.3,64.2,21.3,64.2,21.3"/>
		<path id="XMLID_455_" d="M64.2,21.3h0.2C64.3,21.3,64.2,21.3,64.2,21.3C64.2,21.3,64.2,21.3,64.2,21.3"/>
		<path id="XMLID_449_" class="st0" d="M57.8,16.7c0.1-1.9,1.1-3.7,2.5-4.8c1.1-0.9,2.5-1.4,4.1-1.4c0,0,0,0,0,0h0.1h3.1h2.3h34.7h0
			c-1.7,2.2-3.6,4.3-5.7,6.3h0H71.1h-1.4c-0.8,0-1.5,0.1-2.2,0.4h0c-0.7,0.3-1.2,0.7-1.8,1.1c-0.8,0.8-1.4,1.8-1.6,3h0c0,0,0,0,0,0
			c-1.4,0.1-2.6,0.5-3.6,1.3c-1.6,1.1-2.6,2.9-2.8,5c0,0,0,0,0,0v-9.9c0-0.1,0-0.3,0-0.4C57.7,17,57.8,16.8,57.8,16.7"/>
		<path id="XMLID_439_" class="st1" d="M57.8,27.5L57.8,27.5C57.8,27.5,57.8,27.5,57.8,27.5c0.1-2,1.2-3.8,2.8-5
			c1-0.7,2.3-1.2,3.6-1.3c0.1,0,0.2,0,0.3,0h3.1h2.1h24.1h0c-3.1,2.4-6.3,4.5-9.8,6.3h0H71.1h-1.4c-0.6,0-1.2,0.1-1.7,0.3h0
			c-1.2,0.4-2.3,1.2-3,2.3c-0.6,0.9-0.9,1.9-0.9,3v1.5v33.1c0.5,4.8,3.2,9,7.2,11.4c0.1,0.1,0.2,0.1,0.3,0.2h-8.4
			c-3.1-2.6-5.2-6.4-5.4-10.7V28.4c0-0.1,0-0.3,0-0.4C57.7,27.8,57.8,27.7,57.8,27.5"/>
	</g>
</g>
</svg>
