<?xml version="1.0" encoding="UTF-8" standalone="no"?>
<svg xmlns:rdf="http://www.w3.org/1999/02/22-rdf-syntax-ns#" xmlns="http://www.w3.org/2000/svg" xml:space="preserve" height="100%" width="100%" version="1.1" xmlns:cc="http://creativecommons.org/ns#" xmlns:dc="http://purl.org/dc/elements/1.1/" viewBox="0 0 242.16595 88.680123"><path fill="#2e3192" d="m18.6406 4s-16.1987 8.75098-14.5184 29.0817c1.67777 20.3313 23.0245 38.7578 23.185 39.3201l0.06433 0.145783-12.8884 2.79328s-1.0866 6.03704-4.58735 9.33926l123.989-27.4879-0.86708 5.47367 10.7697-2.38759 1.17564-5.67011 93.2023-20.5344-1.03471-4.95603-4.90177 0.99067-5.06553-3.6463s-0.91086 3.55517-4.51983 3.14661c-3.89653-0.440837-3.68114-3.03264-3.39356-5.48937l1.35366-9.19853-12.4057 0.06155-0.36411 2.83347c-4.90101-3.75319-10.9263-3.0832-10.9263-3.0832-12.6147 1.14625-15.1637 11.2999-15.1637 11.2999l-12.3144 7.11523s-0.62247-11.8461-14.1054-10.3485c0 0-9.3114 1.21542-15.9551 7.7303l-0.70661 3.16547-14.9224 9.93403s-0.26817-8.09381-9.6203-11.9191c-1.02885-0.424888-24.4668 22.9598-27.9428 25.8481 0 0-4.16492 3.21132-8.65728 0.798968l12.7771-11.6673s-6.27418-13.4585-19.9334-7.61615c0 0-8.88628 3.4911-9.37812 12.1298l-23.9934 17.9627s-1.68128-25.7759 24.4525-27.731c0 0-5.67335-5.51018-8.75569-12.4949-0.11213-0.26322 0.0036-0.416912 0.0036-0.416912s-11.9785 3.69265-18.0947 16.2709c-0.08931 0.186245-3.95091 7.4108-4.69776 19.9587l-0.02044 0.196583s-21.6188-23.5926-1.62432-45.7325c0.123718-0.134977 0.02044-0.196583 0.02044-0.196583s-7.65702-6.64396-9.63569-15.0205zm58.0034 44.0525c2.46085-0.554879 3.6398 1.1136 3.6398 1.1136l-6.5041 5.89114c-3.18808-3.471 0.782386-6.09251 0.962356-6.19898 0.704893-0.413381 1.33405-0.677698 1.90194-0.805754zm75.419-16.4319c2.93717-0.701324 4.3679 1.7304 4.52745 1.94109 2.82176 3.69561-0.51622 6.41504-0.52861 6.42291-3.48057 1.7242-5.67333-1.41562-5.75127-1.54174-2.82381-4.49025 1.15577-6.62597 1.15577-6.62597 0.20908-0.0762 0.40085-0.149543 0.59666-0.196293zm41.8679-7.36138c2.7677-0.660158 4.12865 1.6402 4.28007 1.83589 2.65727 3.48497-0.50659 6.03136-0.51825 6.03651-3.28108 1.62492-5.33208-1.30818-5.4056-1.42632-2.66028-4.23202 1.07763-6.25655 1.07763-6.25655 0.19703-0.07177 0.38163-0.14552 0.56615-0.18953zm-87.5286 21.2931s0.0462 0.300878 0.19294 0.437358c4.03465 3.74937-1.15592 6.91408-1.15592 6.91408-2.24324 0.721375-1.94981 1.74462-1.94981 1.74462l0.41935 1.89157-13.7765 2.83012 16.2699-13.8177zm-44.6017 11.2004c3.11695 5.79524 10.8129 6.18118 10.8129 6.18118l-26.4852 5.4235 15.6723-11.6047zm75.0691-15.266-1.65832 8.40183-11.9292 2.64463c1.43354-1.96562 0.90665-3.27384 0.90665-3.27384l12.6808-7.77262zm44.6619-9.48519c0.91817 5.62588 4.59924 7.46269 4.59924 7.46269l-19.5122 4.1017c1.93691-1.32949 2.20862-4.04261 2.20862-4.04261s12.6723-7.72464 12.7043-7.52177zm-34.8477 13.3271c0.67493 1.05774 2.80569 1.68262 2.80569 1.68262l-3.42726 0.85583 0.62157-2.53845zm61.9539-13.3508c0.96781 1.29882 3.3953 2.03204 3.3953 2.03204l-5.03403 1.11602c1.33112-1.57289 1.63873-3.14806 1.63873-3.14806z"/></svg>
